<svg xmlns="http://www.w3.org/2000/svg" width="1060" height="960" viewBox="0 0 1060 960" font-family="Arial, Helvetica, sans-serif"><rect width="1060" height="960" fill="#ffffff"/><text x="40" y="52" font-size="30" font-weight="bold" fill="#2f2f2f">Diagrama de clases 3: Gastos y personal</text><rect x="40" y="110" width="268.0" height="242" fill="#ffffff" stroke="#3d1a78" stroke-width="2"/>
<rect x="40" y="110" width="268.0" height="39" fill="#ece7fb" stroke="#3d1a78" stroke-width="2"/>
<text x="174.0" y="135.5" font-size="17" font-weight="bold" fill="#3d1a78" text-anchor="middle">Operario</text>
<line x1="40" y1="260" x2="308.0" y2="260" stroke="#3d1a78" stroke-width="1.5"/>
<text x="52" y="171" font-size="14.5" fill="#222">- idOperario: Long</text>
<text x="52" y="190" font-size="14.5" fill="#222">- nombreApellido: String</text>
<text x="52" y="209" font-size="14.5" fill="#222">- telefonoContacto: String</text>
<text x="52" y="228" font-size="14.5" fill="#222">- estado: String</text>
<text x="52" y="247" font-size="14.5" fill="#222">- fechaAlta: LocalDateTime</text>
<text x="52" y="282" font-size="14.5" fill="#222">+ actualizarDatos(String, String): void</text>
<text x="52" y="301" font-size="14.5" fill="#222">+ activar(): void</text>
<text x="52" y="320" font-size="14.5" fill="#222">+ desactivar(): void</text>
<text x="52" y="339" font-size="14.5" fill="#222">+ asignar(OperarioObra): void</text>
<rect x="600" y="110" width="216.0" height="356" fill="#ffffff" stroke="#3d1a78" stroke-width="2"/>
<rect x="600" y="110" width="216.0" height="39" fill="#ece7fb" stroke="#3d1a78" stroke-width="2"/>
<text x="708.0" y="135.5" font-size="17" font-weight="bold" fill="#3d1a78" text-anchor="middle">Gasto</text>
<line x1="600" y1="393" x2="816.0" y2="393" stroke="#3d1a78" stroke-width="1.5"/>
<text x="612" y="171" font-size="14.5" fill="#222">- idGasto: Long</text>
<text x="612" y="190" font-size="14.5" fill="#222">- tipoGasto: String</text>
<text x="612" y="209" font-size="14.5" fill="#222">- monto: BigDecimal</text>
<text x="612" y="228" font-size="14.5" fill="#222">- fechaGasto: LocalDate</text>
<text x="612" y="247" font-size="14.5" fill="#222">- fechaCarga: LocalDateTime</text>
<text x="612" y="266" font-size="14.5" fill="#222">- idPedido: Long</text>
<text x="612" y="285" font-size="14.5" fill="#222">- idOperario: Long</text>
<text x="612" y="304" font-size="14.5" fill="#222">- descripcion: String</text>
<text x="612" y="323" font-size="14.5" fill="#222">- comprobanteAdjunto: String</text>
<text x="612" y="342" font-size="14.5" fill="#222">- idUsuarioRegistro: Long</text>
<text x="612" y="361" font-size="14.5" fill="#222">- estado: String</text>
<text x="612" y="380" font-size="14.5" fill="#222">- motivoAnulacion: String</text>
<text x="612" y="415" font-size="14.5" fill="#222">+ actualizar(…): void</text>
<text x="612" y="434" font-size="14.5" fill="#222">+ anular(String): void</text>
<text x="612" y="453" font-size="14.5" fill="#222">+ registradoPor(Long): void</text>
<rect x="40" y="470" width="286.0" height="166" fill="#ffffff" stroke="#3d1a78" stroke-width="2"/>
<rect x="40" y="470" width="286.0" height="39" fill="#ece7fb" stroke="#3d1a78" stroke-width="2"/>
<text x="183.0" y="495.5" font-size="17" font-weight="bold" fill="#3d1a78" text-anchor="middle">OperarioObra</text>
<line x1="40" y1="582" x2="326.0" y2="582" stroke="#3d1a78" stroke-width="1.5"/>
<text x="52" y="531" font-size="14.5" fill="#222">- id: OperarioObraId «clave compuesta»</text>
<text x="52" y="550" font-size="14.5" fill="#222">- fechaAsignacion: LocalDate</text>
<text x="52" y="569" font-size="14.5" fill="#222">- fechaDesasignacion: LocalDate</text>
<text x="52" y="604" font-size="14.5" fill="#222">+ desasignar(LocalDate): void</text>
<text x="52" y="623" font-size="14.5" fill="#222">+ reasignar(): void</text>
<rect x="40" y="720" width="218.0" height="185" fill="#ffffff" stroke="#3d1a78" stroke-width="2"/>
<rect x="40" y="720" width="218.0" height="39" fill="#ece7fb" stroke="#3d1a78" stroke-width="2"/>
<text x="149.0" y="745.5" font-size="17" font-weight="bold" fill="#3d1a78" text-anchor="middle">Inasistencia</text>
<line x1="40" y1="851" x2="258.0" y2="851" stroke="#3d1a78" stroke-width="1.5"/>
<text x="52" y="781" font-size="14.5" fill="#222">- idInasistencia: Long</text>
<text x="52" y="800" font-size="14.5" fill="#222">- fechaFalta: LocalDate</text>
<text x="52" y="819" font-size="14.5" fill="#222">- motivo: String</text>
<text x="52" y="838" font-size="14.5" fill="#222">- idUsuarioRegistro: Long</text>
<text x="52" y="873" font-size="14.5" fill="#222">+ registrarMotivo(String): void</text>
<text x="52" y="892" font-size="14.5" fill="#222">+ registradaPor(Long): void</text>
<rect x="420" y="640" width="73.0" height="43" fill="#f4f4f6" stroke="#9a9aa0" stroke-width="2" stroke-dasharray="7 4"/>
<text x="456.5" y="667.5" font-size="17" font-weight="bold" fill="#77777c" text-anchor="middle">Obra</text>
<rect x="640" y="640" width="83.0" height="43" fill="#f4f4f6" stroke="#9a9aa0" stroke-width="2" stroke-dasharray="7 4"/>
<text x="681.5" y="667.5" font-size="17" font-weight="bold" fill="#77777c" text-anchor="middle">Rubro</text>
<rect x="770" y="640" width="109.0" height="43" fill="#f4f4f6" stroke="#9a9aa0" stroke-width="2" stroke-dasharray="7 4"/>
<text x="824.5" y="667.5" font-size="17" font-weight="bold" fill="#77777c" text-anchor="middle">Subrubro</text>
<rect x="930" y="640" width="89.0" height="43" fill="#f4f4f6" stroke="#9a9aa0" stroke-width="2" stroke-dasharray="7 4"/>
<text x="974.5" y="667.5" font-size="17" font-weight="bold" fill="#77777c" text-anchor="middle">Pedido</text>
<polyline points="600.0,230.0 308.0,230.0" fill="none" stroke="#3a3a3a" stroke-width="1.8" stroke-dasharray="8 5"/>
<text x="582.0" y="221.0" font-size="15" font-weight="bold" fill="#3a3a3a" text-anchor="middle">*</text>
<text x="326.0" y="249.0" font-size="15" font-weight="bold" fill="#3a3a3a" text-anchor="middle">0..1</text>
<text x="454.0" y="218.0" font-size="14" font-style="italic" fill="#555" text-anchor="middle">idOperario</text>
<polyline points="180.7,470.0 177.4,352.0" fill="none" stroke="#3a3a3a" stroke-width="1.8"/>
<polygon points="177.4,352.0 170.7,365.2 178.1,378.0 184.7,364.8" fill="#3a3a3a"/>
<text x="194.2" y="456.6" font-size="15" font-weight="bold" fill="#3a3a3a" text-anchor="middle">*</text>
<text x="164.3" y="391.4" font-size="15" font-weight="bold" fill="#3a3a3a" text-anchor="middle">1</text>
<polyline points="40.0,780.0 18.0,780.0 18.0,310.0 40.0,310.0" fill="none" stroke="#3a3a3a" stroke-width="1.8"/>
<text x="22.0" y="771.0" font-size="15" font-weight="bold" fill="#3a3a3a" text-anchor="middle">*</text>
<text x="22.0" y="301.0" font-size="15" font-weight="bold" fill="#3a3a3a" text-anchor="middle">1</text>
<polyline points="326.0,609.7 420.0,652.0" fill="none" stroke="#3a3a3a" stroke-width="1.8"/>
<text x="336.7" y="634.9" font-size="15" font-weight="bold" fill="#3a3a3a" text-anchor="middle">*</text>
<text x="409.3" y="636.8" font-size="15" font-weight="bold" fill="#3a3a3a" text-anchor="middle">1</text>
<polyline points="258.0,759.0 420.0,671.0" fill="none" stroke="#3a3a3a" stroke-width="1.8"/>
<text x="280.5" y="767.7" font-size="15" font-weight="bold" fill="#3a3a3a" text-anchor="middle">*</text>
<text x="397.5" y="672.3" font-size="15" font-weight="bold" fill="#3a3a3a" text-anchor="middle">1</text>
<polyline points="640.0,466.0 476.5,640.0" fill="none" stroke="#3a3a3a" stroke-width="1.8"/>
<text x="620.0" y="496.0" font-size="15" font-weight="bold" fill="#3a3a3a" text-anchor="middle">*</text>
<text x="499.0" y="641.5" font-size="15" font-weight="bold" fill="#3a3a3a" text-anchor="middle">1</text>
<polyline points="695.0,466.0 681.5,640.0" fill="none" stroke="#3a3a3a" stroke-width="1.8"/>
<text x="679.6" y="487.9" font-size="15" font-weight="bold" fill="#3a3a3a" text-anchor="middle">*</text>
<text x="696.9" y="628.1" font-size="15" font-weight="bold" fill="#3a3a3a" text-anchor="middle">1</text>
<polyline points="771.0,466.0 824.5,640.0" fill="none" stroke="#3a3a3a" stroke-width="1.8"/>
<text x="762.9" y="492.3" font-size="15" font-weight="bold" fill="#3a3a3a" text-anchor="middle">*</text>
<text x="832.6" y="623.7" font-size="15" font-weight="bold" fill="#3a3a3a" text-anchor="middle">0..1</text>
<polyline points="804.0,466.0 974.5,640.0" fill="none" stroke="#3a3a3a" stroke-width="1.8" stroke-dasharray="8 5"/>
<text x="806.6" y="493.7" font-size="15" font-weight="bold" fill="#3a3a3a" text-anchor="middle">*</text>
<text x="971.9" y="622.3" font-size="15" font-weight="bold" fill="#3a3a3a" text-anchor="middle">0..1</text>
<text x="988.5" y="580.0" font-size="14" font-style="italic" fill="#555" text-anchor="start">idPedido</text></svg>