<svg xmlns="http://www.w3.org/2000/svg" width="860" height="860" viewBox="0 0 860 860" font-family="Arial, Helvetica, sans-serif"><rect width="860" height="860" fill="#ffffff"/><text x="40" y="52" font-size="30" font-weight="bold" fill="#2f2f2f">Diagrama de clases 4: Seguimiento de obras</text><rect x="40" y="90" width="73.0" height="43" fill="#f4f4f6" stroke="#9a9aa0" stroke-width="2" stroke-dasharray="7 4"/>
<text x="76.5" y="117.5" font-size="17" font-weight="bold" fill="#77777c" text-anchor="middle">Obra</text>
<rect x="40" y="220" width="299.0" height="318" fill="#ffffff" stroke="#3d1a78" stroke-width="2"/>
<rect x="40" y="220" width="299.0" height="39" fill="#ece7fb" stroke="#3d1a78" stroke-width="2"/>
<text x="189.5" y="245.5" font-size="17" font-weight="bold" fill="#3d1a78" text-anchor="middle">Hito</text>
<line x1="40" y1="465" x2="339.0" y2="465" stroke="#3d1a78" stroke-width="1.5"/>
<text x="52" y="281" font-size="14.5" fill="#222">- idHito: Long</text>
<text x="52" y="300" font-size="14.5" fill="#222">- nombreHito: String</text>
<text x="52" y="319" font-size="14.5" fill="#222">- ponderacion: BigDecimal</text>
<text x="52" y="338" font-size="14.5" fill="#222">- orden: Integer</text>
<text x="52" y="357" font-size="14.5" fill="#222">- duracionDias: Integer</text>
<text x="52" y="376" font-size="14.5" fill="#222">- fechaInicio: LocalDate</text>
<text x="52" y="395" font-size="14.5" fill="#222">- estado: String</text>
<text x="52" y="414" font-size="14.5" fill="#222">- fechaCumplimiento: LocalDate</text>
<text x="52" y="433" font-size="14.5" fill="#222">- observacion: String</text>
<text x="52" y="452" font-size="14.5" fill="#222">- idUsuarioCompleta: Long</text>
<text x="52" y="487" font-size="14.5" fill="#222">+ completar(LocalDate, String, Long): void</text>
<text x="52" y="506" font-size="14.5" fill="#222">+ reabrir(): void</text>
<text x="52" y="525" font-size="14.5" fill="#222">+ registrarObservacion(String): void</text>
<rect x="520" y="330" width="83.0" height="43" fill="#f4f4f6" stroke="#9a9aa0" stroke-width="2" stroke-dasharray="7 4"/>
<text x="561.5" y="357.5" font-size="17" font-weight="bold" fill="#77777c" text-anchor="middle">Rubro</text>
<rect x="40" y="640" width="298.0" height="166" fill="#ffffff" stroke="#3d1a78" stroke-width="2"/>
<rect x="40" y="640" width="298.0" height="39" fill="#ece7fb" stroke="#3d1a78" stroke-width="2"/>
<text x="189.0" y="665.5" font-size="17" font-weight="bold" fill="#3d1a78" text-anchor="middle">PlantillaHito</text>
<line x1="40" y1="752" x2="338.0" y2="752" stroke="#3d1a78" stroke-width="1.5"/>
<text x="52" y="701" font-size="14.5" fill="#222">- idPlantilla: Long</text>
<text x="52" y="720" font-size="14.5" fill="#222">- nombrePlantilla: String</text>
<text x="52" y="739" font-size="14.5" fill="#222">- fechaCreacion: LocalDateTime</text>
<text x="52" y="774" font-size="14.5" fill="#222">+ agregarDetalle(PlantillaHitoDetalle): void</text>
<text x="52" y="793" font-size="14.5" fill="#222">+ sumaPonderaciones(): BigDecimal</text>
<rect x="520" y="640" width="196.0" height="166" fill="#ffffff" stroke="#3d1a78" stroke-width="2"/>
<rect x="520" y="640" width="196.0" height="39" fill="#ece7fb" stroke="#3d1a78" stroke-width="2"/>
<text x="618.0" y="665.5" font-size="17" font-weight="bold" fill="#3d1a78" text-anchor="middle">PlantillaHitoDetalle</text>
<line x1="520" y1="771" x2="716.0" y2="771" stroke="#3d1a78" stroke-width="1.5"/>
<text x="532" y="701" font-size="14.5" fill="#222">- idDetalle: Long</text>
<text x="532" y="720" font-size="14.5" fill="#222">- nombreHito: String</text>
<text x="532" y="739" font-size="14.5" fill="#222">- ponderacion: BigDecimal</text>
<text x="532" y="758" font-size="14.5" fill="#222">- orden: Integer</text>
<text x="532" y="793" font-size="14.5" fill="#222"> </text>
<polyline points="122.3,220.0 85.6,133.0" fill="none" stroke="#3a3a3a" stroke-width="1.8"/>
<text x="128.2" y="203.0" font-size="15" font-weight="bold" fill="#3a3a3a" text-anchor="middle">*</text>
<text x="79.7" y="160.0" font-size="15" font-weight="bold" fill="#3a3a3a" text-anchor="middle">1</text>
<polyline points="339.0,351.5 520.0,351.5" fill="none" stroke="#3a3a3a" stroke-width="1.8"/>
<text x="357.0" y="370.5" font-size="15" font-weight="bold" fill="#3a3a3a" text-anchor="middle">*</text>
<text x="502.0" y="342.5" font-size="15" font-weight="bold" fill="#3a3a3a" text-anchor="middle">0..1</text>
<polyline points="520.0,723.0 338.0,723.0" fill="none" stroke="#3a3a3a" stroke-width="1.8"/>
<polygon points="338.0,723.0 351.0,730.0 364.0,723.0 351.0,716.0" fill="#3a3a3a"/>
<text x="502.0" y="714.0" font-size="15" font-weight="bold" fill="#3a3a3a" text-anchor="middle">*</text>
<text x="372.0" y="742.0" font-size="15" font-weight="bold" fill="#3a3a3a" text-anchor="middle">1</text></svg>