<svg xmlns="http://www.w3.org/2000/svg" width="1723" height="1420" viewBox="0 0 1723 1420" font-family="Arial, Helvetica, sans-serif"><defs><marker id="call" viewBox="0 0 12 12" refX="11" refY="6" markerWidth="11" markerHeight="11" markerUnits="userSpaceOnUse" orient="auto"><path d="M0,0 L12,6 L0,12 z" fill="#3a3a3a"/></marker><marker id="ret" viewBox="0 0 12 12" refX="11" refY="6" markerWidth="12" markerHeight="12" markerUnits="userSpaceOnUse" orient="auto"><path d="M1,1 L11,6 L1,11" fill="none" stroke="#55555a" stroke-width="1.6"/></marker></defs>
<rect width="1723" height="1420" fill="#ffffff"/>
<text x="40" y="52" font-size="30" font-weight="bold" fill="#2f2f2f">Secuencia 5: Confirmación de la recepción con el remito</text>
<rect x="1493" y="14" width="214" height="84" rx="7" fill="#fbfbfb" stroke="#dadada"/>
<rect x="1505" y="22" width="16" height="16" rx="3" fill="#e8e0f6" stroke="#b7a3e3"/><text x="1529" y="35" font-size="13" fill="#444">Pantalla (frontend)</text>
<rect x="1505" y="46" width="16" height="16" rx="3" fill="#4b2a83" stroke="#3c1f6e"/><text x="1529" y="59" font-size="13" fill="#444">Servidor (backend)</text>
<rect x="1505" y="70" width="16" height="16" rx="3" fill="#f1f1f3" stroke="#9a9aa0"/><text x="1529" y="83" font-size="13" fill="#444">Datos y archivos</text>
<line x1="150" y1="198" x2="150" y2="1322" stroke="#b3b3b8" stroke-width="1.5"/>
<line x1="444.0" y1="176" x2="444.0" y2="1322" stroke="#b3b3b8" stroke-width="1.5"/>
<line x1="654.0" y1="176" x2="654.0" y2="1322" stroke="#b3b3b8" stroke-width="1.5"/>
<line x1="864.0" y1="176" x2="864.0" y2="1322" stroke="#b3b3b8" stroke-width="1.5"/>
<line x1="1074.0" y1="176" x2="1074.0" y2="1322" stroke="#b3b3b8" stroke-width="1.5"/>
<line x1="1300.0" y1="176" x2="1300.0" y2="1322" stroke="#b3b3b8" stroke-width="1.5"/>
<line x1="1605.0" y1="176" x2="1605.0" y2="1322" stroke="#b3b3b8" stroke-width="1.5"/>
<rect x="384.0" y="890" width="1281.0" height="382" fill="none" stroke="#8a7fb0" stroke-width="1.5" stroke-dasharray="6 4"/>
<path d="M 384.0 890 h 33.0 v 14 l -8 8 h -25.0 z" fill="#ede8f7" stroke="#8a7fb0" stroke-width="1.3"/><text x="392.0" y="906" font-size="13" font-weight="bold" fill="#3d1a78">alt</text>
<rect x="425.0" y="893" width="295.0" height="19" fill="#ffffff"/><text x="429.0" y="907" font-size="14" font-style="italic" font-weight="bold" fill="#4b3b7d">[Fuera de su obra, o pedido no aprobado]</text>
<line x1="384.0" y1="978" x2="1665.0" y2="978" stroke="#8a7fb0" stroke-width="1.3" stroke-dasharray="6 4"/>
<rect x="425.0" y="981" width="215.0" height="19" fill="#ffffff"/><text x="429.0" y="995" font-size="14" font-style="italic" font-weight="bold" fill="#4b3b7d">[Pedido enviado al proveedor]</text>
<g stroke="#3d1466" stroke-width="2.4" fill="none" stroke-linecap="round"><circle cx="150" cy="127" r="9" fill="#fff"/><line x1="150" y1="136" x2="150" y2="156"/><line x1="136" y1="143" x2="164" y2="143"/><line x1="150" y1="156" x2="139" y2="172"/><line x1="150" y1="156" x2="161" y2="172"/></g>
<text x="150" y="192" font-size="15" font-weight="bold" fill="#3d1466" text-anchor="middle">Capataz</text>
<g stroke="#3d1466" stroke-width="2.4" fill="none" stroke-linecap="round"><circle cx="150" cy="1331" r="9" fill="#fff"/><line x1="150" y1="1340" x2="150" y2="1360"/><line x1="136" y1="1347" x2="164" y2="1347"/><line x1="150" y1="1360" x2="139" y2="1376"/><line x1="150" y1="1360" x2="161" y2="1376"/></g>
<text x="150" y="1396" font-size="15" font-weight="bold" fill="#3d1466" text-anchor="middle">Capataz</text>
<rect x="356.0" y="118" width="176" height="58" rx="8" fill="#e8e0f6" stroke="#b7a3e3" stroke-width="1.4"/>
<text x="444.0" y="143" font-size="15" font-weight="bold" fill="#2a1650" text-anchor="middle">Pantalla de Compras</text>
<text x="444.0" y="162" font-size="12.5" fill="#5b4a85" text-anchor="middle">celular</text>
<rect x="356.0" y="1322" width="176" height="58" rx="8" fill="#e8e0f6" stroke="#b7a3e3" stroke-width="1.4"/>
<text x="444.0" y="1347" font-size="15" font-weight="bold" fill="#2a1650" text-anchor="middle">Pantalla de Compras</text>
<text x="444.0" y="1366" font-size="12.5" fill="#5b4a85" text-anchor="middle">celular</text>
<rect x="566.0" y="118" width="176" height="58" rx="8" fill="#4b2a83" stroke="#3c1f6e" stroke-width="1.4"/>
<text x="654.0" y="143" font-size="15" font-weight="bold" fill="#ffffff" text-anchor="middle">ArchivoController</text>
<text x="654.0" y="162" font-size="12.5" fill="#d9cff0" text-anchor="middle">recibe la foto</text>
<rect x="566.0" y="1322" width="176" height="58" rx="8" fill="#4b2a83" stroke="#3c1f6e" stroke-width="1.4"/>
<text x="654.0" y="1347" font-size="15" font-weight="bold" fill="#ffffff" text-anchor="middle">ArchivoController</text>
<text x="654.0" y="1366" font-size="12.5" fill="#d9cff0" text-anchor="middle">recibe la foto</text>
<rect x="776.0" y="118" width="176" height="58" rx="8" fill="#f1f1f3" stroke="#9a9aa0" stroke-width="1.4"/>
<text x="864.0" y="143" font-size="15" font-weight="bold" fill="#2f2f2f" text-anchor="middle">Supabase Storage</text>
<text x="864.0" y="162" font-size="12.5" fill="#666670" text-anchor="middle">archivos</text>
<rect x="776.0" y="1322" width="176" height="58" rx="8" fill="#f1f1f3" stroke="#9a9aa0" stroke-width="1.4"/>
<text x="864.0" y="1347" font-size="15" font-weight="bold" fill="#2f2f2f" text-anchor="middle">Supabase Storage</text>
<text x="864.0" y="1366" font-size="12.5" fill="#666670" text-anchor="middle">archivos</text>
<rect x="986.0" y="118" width="176" height="58" rx="8" fill="#4b2a83" stroke="#3c1f6e" stroke-width="1.4"/>
<text x="1074.0" y="143" font-size="15" font-weight="bold" fill="#ffffff" text-anchor="middle">PedidoController</text>
<text x="1074.0" y="162" font-size="12.5" fill="#d9cff0" text-anchor="middle">recibe el pedido</text>
<rect x="986.0" y="1322" width="176" height="58" rx="8" fill="#4b2a83" stroke="#3c1f6e" stroke-width="1.4"/>
<text x="1074.0" y="1347" font-size="15" font-weight="bold" fill="#ffffff" text-anchor="middle">PedidoController</text>
<text x="1074.0" y="1366" font-size="12.5" fill="#d9cff0" text-anchor="middle">recibe el pedido</text>
<rect x="1212.0" y="118" width="176" height="58" rx="8" fill="#4b2a83" stroke="#3c1f6e" stroke-width="1.4"/>
<text x="1300.0" y="143" font-size="15" font-weight="bold" fill="#ffffff" text-anchor="middle">PedidoService</text>
<text x="1300.0" y="162" font-size="12.5" fill="#d9cff0" text-anchor="middle">reglas del negocio</text>
<rect x="1212.0" y="1322" width="176" height="58" rx="8" fill="#4b2a83" stroke="#3c1f6e" stroke-width="1.4"/>
<text x="1300.0" y="1347" font-size="15" font-weight="bold" fill="#ffffff" text-anchor="middle">PedidoService</text>
<text x="1300.0" y="1366" font-size="12.5" fill="#d9cff0" text-anchor="middle">reglas del negocio</text>
<rect x="1517.0" y="118" width="176" height="58" rx="8" fill="#f1f1f3" stroke="#9a9aa0" stroke-width="1.4"/>
<text x="1605.0" y="143" font-size="15" font-weight="bold" fill="#2f2f2f" text-anchor="middle">Base de datos</text>
<text x="1605.0" y="162" font-size="12.5" fill="#666670" text-anchor="middle">PostgreSQL</text>
<rect x="1517.0" y="1322" width="176" height="58" rx="8" fill="#f1f1f3" stroke="#9a9aa0" stroke-width="1.4"/>
<text x="1605.0" y="1347" font-size="15" font-weight="bold" fill="#2f2f2f" text-anchor="middle">Base de datos</text>
<text x="1605.0" y="1366" font-size="12.5" fill="#666670" text-anchor="middle">PostgreSQL</text>
<line x1="160" y1="266" x2="442.0" y2="266" stroke="#3a3a3a" stroke-width="1.8" marker-end="url(#call)"/>
<rect x="209.0" y="243.0" width="176.0" height="20" fill="#ffffff"/>
<text x="297.0" y="257.0" font-size="15" fill="#2b2b2b" text-anchor="middle">Le saca una foto al remito</text>
<circle cx="150" cy="266" r="10" fill="#2f2f2f"/><text x="150" y="270.2" font-size="11.5" font-weight="bold" fill="#fff" text-anchor="middle">1</text>
<line x1="454.0" y1="329" x2="652.0" y2="329" stroke="#3a3a3a" stroke-width="1.8" marker-end="url(#call)"/>
<rect x="506.5" y="287.0" width="85.0" height="20" fill="#ffffff"/>
<text x="549.0" y="301.0" font-size="15" fill="#2b2b2b" text-anchor="middle">Sube la foto</text>
<rect x="484.0" y="308.5" width="130.0" height="17.5" fill="#ffffff"/>
<text x="549.0" y="320.0" font-size="12.5" fill="#6a6a72" text-anchor="middle">(POST /api/archivos)</text>
<circle cx="444.0" cy="329" r="10" fill="#2f2f2f"/><text x="444.0" y="333.2" font-size="11.5" font-weight="bold" fill="#fff" text-anchor="middle">2</text>
<path d="M 664.0 369 L 696.0 369 L 696.0 415 L 657.0 415" fill="none" stroke="#3a3a3a" stroke-width="1.8" marker-end="url(#call)"/>
<rect x="702.0" y="368.0" width="193.0" height="20" fill="#ffffff"/>
<text x="706.0" y="382.0" font-size="15" fill="#2b2b2b" text-anchor="start">Valida el tipo real del archivo</text>
<rect x="702.0" y="387.0" width="89.0" height="20" fill="#ffffff"/>
<text x="706.0" y="401.0" font-size="15" fill="#2b2b2b" text-anchor="start">y su tamaño</text>
<circle cx="654.0" cy="369" r="10" fill="#2f2f2f"/><text x="654.0" y="373.2" font-size="11.5" font-weight="bold" fill="#fff" text-anchor="middle">3</text>
<line x1="664.0" y1="453" x2="862.0" y2="453" stroke="#3a3a3a" stroke-width="1.8" marker-end="url(#call)"/>
<rect x="697.0" y="430.0" width="124.0" height="20" fill="#ffffff"/>
<text x="759.0" y="444.0" font-size="15" fill="#2b2b2b" text-anchor="middle">Guarda la imagen</text>
<circle cx="654.0" cy="453" r="10" fill="#2f2f2f"/><text x="654.0" y="457.2" font-size="11.5" font-weight="bold" fill="#fff" text-anchor="middle">4</text>
<line x1="854.0" y1="497" x2="656.0" y2="497" stroke="#55555a" stroke-width="1.8" stroke-dasharray="7 5" marker-end="url(#ret)"/>
<rect x="722.5" y="474.0" width="73.0" height="20" fill="#ffffff"/>
<text x="759.0" y="488.0" font-size="15" fill="#2b2b2b" text-anchor="middle">Guardada</text>
<circle cx="864.0" cy="497" r="10" fill="#2f2f2f"/><text x="864.0" y="501.2" font-size="11.5" font-weight="bold" fill="#fff" text-anchor="middle">5</text>
<line x1="644.0" y1="541" x2="446.0" y2="541" stroke="#55555a" stroke-width="1.8" stroke-dasharray="7 5" marker-end="url(#ret)"/>
<rect x="478.0" y="518.0" width="142.0" height="20" fill="#ffffff"/>
<text x="549.0" y="532.0" font-size="15" fill="#2b2b2b" text-anchor="middle">Referencia de la foto</text>
<circle cx="654.0" cy="541" r="10" fill="#2f2f2f"/><text x="654.0" y="545.2" font-size="11.5" font-weight="bold" fill="#fff" text-anchor="middle">6</text>
<line x1="160" y1="585" x2="442.0" y2="585" stroke="#3a3a3a" stroke-width="1.8" marker-end="url(#call)"/>
<rect x="174.0" y="562.0" width="246.0" height="20" fill="#ffffff"/>
<text x="297.0" y="576.0" font-size="15" fill="#2b2b2b" text-anchor="middle">Indica si hubo diferencias y confirma</text>
<circle cx="150" cy="585" r="10" fill="#2f2f2f"/><text x="150" y="589.2" font-size="11.5" font-weight="bold" fill="#fff" text-anchor="middle">7</text>
<line x1="454.0" y1="648" x2="1072.0" y2="648" stroke="#3a3a3a" stroke-width="1.8" marker-end="url(#call)"/>
<rect x="618.5" y="606.0" width="281.0" height="20" fill="#ffffff"/>
<text x="759.0" y="620.0" font-size="15" fill="#2b2b2b" text-anchor="middle">Confirma la recepción con la foto y la nota</text>
<rect x="651.0" y="627.5" width="216.0" height="17.5" fill="#ffffff"/>
<text x="759.0" y="639.0" font-size="12.5" fill="#6a6a72" text-anchor="middle">(PATCH /api/pedidos/{id}/recepcion)</text>
<circle cx="444.0" cy="648" r="10" fill="#2f2f2f"/><text x="444.0" y="652.2" font-size="11.5" font-weight="bold" fill="#fff" text-anchor="middle">8</text>
<line x1="1084.0" y1="692" x2="1298.0" y2="692" stroke="#3a3a3a" stroke-width="1.8" marker-end="url(#call)"/>
<rect x="1098.0" y="669.0" width="178.0" height="20" fill="#ffffff"/>
<text x="1187.0" y="683.0" font-size="15" fill="#2b2b2b" text-anchor="middle">Pide registrar la recepción</text>
<circle cx="1074.0" cy="692" r="10" fill="#2f2f2f"/><text x="1074.0" y="696.2" font-size="11.5" font-weight="bold" fill="#fff" text-anchor="middle">9</text>
<line x1="1310.0" y1="736" x2="1603.0" y2="736" stroke="#3a3a3a" stroke-width="1.8" marker-end="url(#call)"/>
<rect x="1356.0" y="713.0" width="193.0" height="20" fill="#ffffff"/>
<text x="1452.5" y="727.0" font-size="15" fill="#2b2b2b" text-anchor="middle">Busca el pedido con su obra</text>
<circle cx="1300.0" cy="736" r="10" fill="#2f2f2f"/><text x="1300.0" y="740.2" font-size="11.5" font-weight="bold" fill="#fff" text-anchor="middle">10</text>
<line x1="1595.0" y1="780" x2="1302.0" y2="780" stroke="#55555a" stroke-width="1.8" stroke-dasharray="7 5" marker-end="url(#ret)"/>
<rect x="1393.5" y="757.0" width="118.0" height="20" fill="#ffffff"/>
<text x="1452.5" y="771.0" font-size="15" fill="#2b2b2b" text-anchor="middle">Pedido y su obra</text>
<circle cx="1605.0" cy="780" r="10" fill="#2f2f2f"/><text x="1605.0" y="784.2" font-size="11.5" font-weight="bold" fill="#fff" text-anchor="middle">11</text>
<path d="M 1310.0 820 L 1342.0 820 L 1342.0 866 L 1303.0 866" fill="none" stroke="#3a3a3a" stroke-width="1.8" marker-end="url(#call)"/>
<rect x="1348.0" y="819.0" width="221.0" height="20" fill="#ffffff"/>
<text x="1352.0" y="833.0" font-size="15" fill="#2b2b2b" text-anchor="start">Revisa que el capataz trabaje en</text>
<rect x="1348.0" y="838.0" width="65.0" height="20" fill="#ffffff"/>
<text x="1352.0" y="852.0" font-size="15" fill="#2b2b2b" text-anchor="start">esa obra</text>
<circle cx="1300.0" cy="820" r="10" fill="#2f2f2f"/><text x="1300.0" y="824.2" font-size="11.5" font-weight="bold" fill="#fff" text-anchor="middle">12</text>
<line x1="1290.0" y1="956" x2="446.0" y2="956" stroke="#55555a" stroke-width="1.8" stroke-dasharray="7 5" marker-end="url(#ret)"/>
<rect x="761.5" y="933.0" width="221.0" height="20" fill="#ffffff"/>
<text x="872.0" y="947.0" font-size="15" fill="#2b2b2b" text-anchor="middle">Error: no se registra la recepción</text>
<circle cx="1300.0" cy="956" r="10" fill="#2f2f2f"/><text x="1300.0" y="960.2" font-size="11.5" font-weight="bold" fill="#fff" text-anchor="middle">13</text>
<path d="M 1310.0 1036 L 1342.0 1036 L 1342.0 1101 L 1303.0 1101" fill="none" stroke="#3a3a3a" stroke-width="1.8" marker-end="url(#call)"/>
<rect x="1348.0" y="1035.0" width="205.0" height="20" fill="#ffffff"/>
<text x="1352.0" y="1049.0" font-size="15" fill="#2b2b2b" text-anchor="start">Con nota queda &quot;Recibido con</text>
<rect x="1348.0" y="1054.0" width="209.0" height="20" fill="#ffffff"/>
<text x="1352.0" y="1068.0" font-size="15" fill="#2b2b2b" text-anchor="start">diferencias&quot;, sin nota &quot;Recibido</text>
<rect x="1348.0" y="1073.0" width="73.0" height="20" fill="#ffffff"/>
<text x="1352.0" y="1087.0" font-size="15" fill="#2b2b2b" text-anchor="start">completo&quot;</text>
<circle cx="1300.0" cy="1036" r="10" fill="#2f2f2f"/><text x="1300.0" y="1040.2" font-size="11.5" font-weight="bold" fill="#fff" text-anchor="middle">14</text>
<line x1="1310.0" y1="1139" x2="1603.0" y2="1139" stroke="#3a3a3a" stroke-width="1.8" marker-end="url(#call)"/>
<rect x="1324.0" y="1116.0" width="257.0" height="20" fill="#ffffff"/>
<text x="1452.5" y="1130.0" font-size="15" fill="#2b2b2b" text-anchor="middle">Guarda la foto, quién recibió y la fecha</text>
<circle cx="1300.0" cy="1139" r="10" fill="#2f2f2f"/><text x="1300.0" y="1143.2" font-size="11.5" font-weight="bold" fill="#fff" text-anchor="middle">15</text>
<line x1="1290.0" y1="1183" x2="1076.0" y2="1183" stroke="#55555a" stroke-width="1.8" stroke-dasharray="7 5" marker-end="url(#ret)"/>
<rect x="1133.0" y="1160.0" width="108.0" height="20" fill="#ffffff"/>
<text x="1187.0" y="1174.0" font-size="15" fill="#2b2b2b" text-anchor="middle">Pedido recibido</text>
<circle cx="1300.0" cy="1183" r="10" fill="#2f2f2f"/><text x="1300.0" y="1187.2" font-size="11.5" font-weight="bold" fill="#fff" text-anchor="middle">16</text>
<line x1="1064.0" y1="1246" x2="446.0" y2="1246" stroke="#55555a" stroke-width="1.8" stroke-dasharray="7 5" marker-end="url(#ret)"/>
<rect x="681.5" y="1204.0" width="155.0" height="20" fill="#ffffff"/>
<text x="759.0" y="1218.0" font-size="15" fill="#2b2b2b" text-anchor="middle">Recepción confirmada</text>
<rect x="678.5" y="1225.5" width="161.0" height="17.5" fill="#ffffff"/>
<text x="759.0" y="1237.0" font-size="12.5" fill="#6a6a72" text-anchor="middle">(respuesta 200: salió bien)</text>
<circle cx="1074.0" cy="1246" r="10" fill="#2f2f2f"/><text x="1074.0" y="1250.2" font-size="11.5" font-weight="bold" fill="#fff" text-anchor="middle">17</text></svg>