<?xml version="1.0" encoding="UTF-8" standalone="no"?>
<!DOCTYPE svg PUBLIC "-//W3C//DTD SVG 1.1//EN"
 "http://www.w3.org/Graphics/SVG/1.1/DTD/svg11.dtd">
<!-- Generated by graphviz version 13.1.0 (20250701.0955)
 -->
<!-- Title: CasosDeUso Pages: 1 -->
<svg width="649pt" height="1642pt"
 viewBox="0.00 0.00 649.00 1642.00" xmlns="http://www.w3.org/2000/svg" xmlns:xlink="http://www.w3.org/1999/xlink">
<g id="graph0" class="graph" transform="scale(1 1) rotate(0) translate(4 1638)">
<title>CasosDeUso</title>
<polygon fill="white" stroke="none" points="-4,4 -4,-1638 644.8,-1638 644.8,4 -4,4"/>
<g id="clust2" class="cluster">
<title>cluster_sistema</title>
<path fill="white" stroke="#1d2d3d" stroke-width="1.4" d="M274.8,-8C274.8,-8 620.8,-8 620.8,-8 626.8,-8 632.8,-14 632.8,-20 632.8,-20 632.8,-1614 632.8,-1614 632.8,-1620 626.8,-1626 620.8,-1626 620.8,-1626 274.8,-1626 274.8,-1626 268.8,-1626 262.8,-1620 262.8,-1614 262.8,-1614 262.8,-20 262.8,-20 262.8,-14 268.8,-8 274.8,-8"/>
<text xml:space="preserve" text-anchor="middle" x="447.8" y="-1605.85" font-family="Segoe UI,Arial" font-size="17.00" fill="#1d2d3d">SIGCO — Sistema Integral de Gestión de Obras</text>
</g>
<g id="clust3" class="cluster">
<title>cluster_comercial</title>
<path fill="white" stroke="#c3ccd6" stroke-width="1.4" d="M357.3,-1348C357.3,-1348 537.3,-1348 537.3,-1348 543.3,-1348 549.3,-1354 549.3,-1360 549.3,-1360 549.3,-1563 549.3,-1563 549.3,-1569 543.3,-1575 537.3,-1575 537.3,-1575 357.3,-1575 357.3,-1575 351.3,-1575 345.3,-1569 345.3,-1563 345.3,-1563 345.3,-1360 345.3,-1360 345.3,-1354 351.3,-1348 357.3,-1348"/>
<text xml:space="preserve" text-anchor="middle" x="393.05" y="-1560.55" font-family="Segoe UI,Arial" font-size="11.00" fill="#5d6b7a">Presupuestación</text>
</g>
<g id="clust4" class="cluster">
<title>cluster_abastecimiento</title>
<path fill="white" stroke="#c3ccd6" stroke-width="1.4" d="M354.85,-275C354.85,-275 539.75,-275 539.75,-275 545.75,-275 551.75,-281 551.75,-287 551.75,-287 551.75,-606 551.75,-606 551.75,-612 545.75,-618 539.75,-618 539.75,-618 354.85,-618 354.85,-618 348.85,-618 342.85,-612 342.85,-606 342.85,-606 342.85,-287 342.85,-287 342.85,-281 348.85,-275 354.85,-275"/>
<text xml:space="preserve" text-anchor="middle" x="372.6" y="-603.55" font-family="Segoe UI,Arial" font-size="11.00" fill="#5d6b7a">Compras</text>
</g>
<g id="clust5" class="cluster">
<title>cluster_ejecucion</title>
<path fill="white" stroke="#c3ccd6" stroke-width="1.4" d="M357.3,-961C357.3,-961 537.3,-961 537.3,-961 543.3,-961 549.3,-967 549.3,-973 549.3,-973 549.3,-1316 549.3,-1316 549.3,-1322 543.3,-1328 537.3,-1328 537.3,-1328 357.3,-1328 357.3,-1328 351.3,-1328 345.3,-1322 345.3,-1316 345.3,-1316 345.3,-973 345.3,-973 345.3,-967 351.3,-961 357.3,-961"/>
<text xml:space="preserve" text-anchor="middle" x="399.8" y="-1313.55" font-family="Segoe UI,Arial" font-size="11.00" fill="#5d6b7a">Ejecución y control</text>
</g>
<g id="clust6" class="cluster">
<title>cluster_cobros</title>
<path fill="white" stroke="#c3ccd6" stroke-width="1.4" d="M357.3,-698C357.3,-698 537.3,-698 537.3,-698 543.3,-698 549.3,-704 549.3,-710 549.3,-710 549.3,-929 549.3,-929 549.3,-935 543.3,-941 537.3,-941 537.3,-941 357.3,-941 357.3,-941 351.3,-941 345.3,-935 345.3,-929 345.3,-929 345.3,-710 345.3,-710 345.3,-704 351.3,-698 357.3,-698"/>
<text xml:space="preserve" text-anchor="middle" x="370.92" y="-926.55" font-family="Segoe UI,Arial" font-size="11.00" fill="#5d6b7a">Cobros</text>
</g>
<g id="clust7" class="cluster">
<title>cluster_difusion</title>
<path fill="white" stroke="#c3ccd6" stroke-width="1.4" d="M357.3,-28C357.3,-28 537.3,-28 537.3,-28 543.3,-28 549.3,-34 549.3,-40 549.3,-40 549.3,-243 549.3,-243 549.3,-249 543.3,-255 537.3,-255 537.3,-255 357.3,-255 357.3,-255 351.3,-255 345.3,-249 345.3,-243 345.3,-243 345.3,-40 345.3,-40 345.3,-34 351.3,-28 357.3,-28"/>
<text xml:space="preserve" text-anchor="middle" x="398.3" y="-240.55" font-family="Segoe UI,Arial" font-size="11.00" fill="#5d6b7a">Portfolio y tablero</text>
</g>
<!-- dueno -->
<g id="node1" class="node">
<title>dueno</title>
<path fill="#1d2d3d" stroke="black" d="M124.8,-1107.92C124.8,-1107.92 12,-1107.92 12,-1107.92 6,-1107.92 0,-1101.92 0,-1095.92 0,-1095.92 0,-1068.08 0,-1068.08 0,-1062.08 6,-1056.08 12,-1056.08 12,-1056.08 124.8,-1056.08 124.8,-1056.08 130.8,-1056.08 136.8,-1062.08 136.8,-1068.08 136.8,-1068.08 136.8,-1095.92 136.8,-1095.92 136.8,-1101.92 130.8,-1107.92 124.8,-1107.92"/>
<text xml:space="preserve" text-anchor="middle" x="68.4" y="-1078.45" font-family="Segoe UI,Arial" font-size="14.00" fill="white">Dueño</text>
</g>
<!-- uc_presup -->
<g id="node5" class="node">
<title>uc_presup</title>
<ellipse fill="#eef6ff" stroke="#94bce3" stroke-width="0.9" cx="447.3" cy="-1520" rx="90" ry="20.16"/>
<text xml:space="preserve" text-anchor="middle" x="447.3" y="-1516.95" font-family="Segoe UI,Arial" font-size="11.50" fill="#1d1f20">Armar el presupuesto</text>
</g>
<!-- dueno&#45;&gt;uc_presup -->
<g id="edge1" class="edge">
<title>dueno&#45;&gt;uc_presup</title>
<path fill="none" stroke="#5980a6" d="M70.75,-1108.35C75.89,-1179.89 100.42,-1379.11 215.8,-1479 254.9,-1512.85 312.08,-1523.18 359.71,-1525.01"/>
</g>
<!-- uc_aprobarP -->
<g id="node6" class="node">
<title>uc_aprobarP</title>
<ellipse fill="#eef6ff" stroke="#94bce3" stroke-width="0.9" cx="447.3" cy="-1458" rx="90" ry="20.16"/>
<text xml:space="preserve" text-anchor="middle" x="447.3" y="-1454.95" font-family="Segoe UI,Arial" font-size="11.50" fill="#1d1f20">Aprobar el definitivo</text>
</g>
<!-- dueno&#45;&gt;uc_aprobarP -->
<g id="edge2" class="edge">
<title>dueno&#45;&gt;uc_aprobarP</title>
<path fill="none" stroke="#5980a6" d="M70.49,-1108.32C75,-1178.61 98.04,-1370.99 215.8,-1453 265.73,-1487.77 337.63,-1483.01 387.8,-1473.41"/>
</g>
<!-- uc_pdf -->
<g id="node7" class="node">
<title>uc_pdf</title>
<ellipse fill="#eef6ff" stroke="#94bce3" stroke-width="0.9" cx="447.3" cy="-1388" rx="90" ry="27.93"/>
<text xml:space="preserve" text-anchor="middle" x="447.3" y="-1392.83" font-family="Segoe UI,Arial" font-size="11.50" fill="#1d1f20">Emitir el PDF</text>
<text xml:space="preserve" text-anchor="middle" x="447.3" y="-1377.08" font-family="Segoe UI,Arial" font-size="11.50" fill="#1d1f20">para el cliente</text>
</g>
<!-- dueno&#45;&gt;uc_pdf -->
<g id="edge3" class="edge">
<title>dueno&#45;&gt;uc_pdf</title>
<path fill="none" stroke="#5980a6" d="M82.47,-1108.39C109.15,-1159.55 174.88,-1272.5 262.8,-1333 293.48,-1354.12 332.44,-1367.28 366.56,-1375.41"/>
</g>
<!-- uc_aprobarC -->
<g id="node9" class="node">
<title>uc_aprobarC</title>
<ellipse fill="#eef6ff" stroke="#94bce3" stroke-width="0.9" cx="447.3" cy="-563" rx="90" ry="20.16"/>
<text xml:space="preserve" text-anchor="middle" x="447.3" y="-559.95" font-family="Segoe UI,Arial" font-size="11.50" fill="#1d1f20">Aprobar el pedido</text>
</g>
<!-- dueno&#45;&gt;uc_aprobarC -->
<g id="edge4" class="edge">
<title>dueno&#45;&gt;uc_aprobarC</title>
<path fill="none" stroke="#5980a6" d="M70.59,-1055.69C75.96,-971.24 105.23,-705.59 262.8,-587 290.52,-566.13 327.52,-558.6 361.02,-556.87"/>
</g>
<!-- uc_whatsapp -->
<g id="node10" class="node">
<title>uc_whatsapp</title>
<ellipse fill="#eef6ff" stroke="#94bce3" stroke-width="0.9" cx="447.3" cy="-471" rx="90" ry="27.93"/>
<text xml:space="preserve" text-anchor="middle" x="447.3" y="-475.82" font-family="Segoe UI,Arial" font-size="11.50" fill="#1d1f20">Enviarlo al corralón</text>
<text xml:space="preserve" text-anchor="middle" x="447.3" y="-460.07" font-family="Segoe UI,Arial" font-size="11.50" fill="#1d1f20">por WhatsApp</text>
</g>
<!-- dueno&#45;&gt;uc_whatsapp -->
<g id="edge5" class="edge">
<title>dueno&#45;&gt;uc_whatsapp</title>
<path fill="none" stroke="#5980a6" d="M73.6,-1055.64C86.42,-979.84 129.54,-756.19 215.8,-591 231.32,-561.28 235.31,-551.19 262.8,-532 294.73,-509.71 335.4,-495.09 370.33,-485.77"/>
</g>
<!-- uc_etapas -->
<g id="node12" class="node">
<title>uc_etapas</title>
<ellipse fill="#eef6ff" stroke="#94bce3" stroke-width="0.9" cx="447.3" cy="-1149" rx="90" ry="20.16"/>
<text xml:space="preserve" text-anchor="middle" x="447.3" y="-1145.95" font-family="Segoe UI,Arial" font-size="11.50" fill="#1d1f20">Definir las etapas</text>
</g>
<!-- dueno&#45;&gt;uc_etapas -->
<g id="edge6" class="edge">
<title>dueno&#45;&gt;uc_etapas</title>
<path fill="none" stroke="#5980a6" d="M104.81,-1108.34C133.18,-1127.71 174.88,-1152.43 215.8,-1163 270.92,-1177.23 335.81,-1171.37 382.68,-1163.32"/>
</g>
<!-- uc_gasto -->
<g id="node14" class="node">
<title>uc_gasto</title>
<ellipse fill="#eef6ff" stroke="#94bce3" stroke-width="0.9" cx="447.3" cy="-1273" rx="90" ry="20.16"/>
<text xml:space="preserve" text-anchor="middle" x="447.3" y="-1269.95" font-family="Segoe UI,Arial" font-size="11.50" fill="#1d1f20">Registrar un gasto</text>
</g>
<!-- dueno&#45;&gt;uc_gasto -->
<g id="edge7" class="edge">
<title>dueno&#45;&gt;uc_gasto</title>
<path fill="none" stroke="#5980a6" d="M91.95,-1108.27C125.22,-1145.05 191.28,-1210.87 262.8,-1242 293.31,-1255.28 328.98,-1262.89 360.71,-1267.25"/>
</g>
<!-- uc_desvio -->
<g id="node15" class="node">
<title>uc_desvio</title>
<ellipse fill="#eef6ff" stroke="#94bce3" stroke-width="0.9" cx="447.3" cy="-1079" rx="90" ry="27.93"/>
<text xml:space="preserve" text-anchor="middle" x="447.3" y="-1083.83" font-family="Segoe UI,Arial" font-size="11.50" fill="#1d1f20">Ver el desvío</text>
<text xml:space="preserve" text-anchor="middle" x="447.3" y="-1068.08" font-family="Segoe UI,Arial" font-size="11.50" fill="#1d1f20">contra el presupuesto</text>
</g>
<!-- dueno&#45;&gt;uc_desvio -->
<g id="edge8" class="edge">
<title>dueno&#45;&gt;uc_desvio</title>
<path fill="none" stroke="#5980a6" d="M118.66,-1108.27C146.35,-1121.55 182.05,-1136.25 215.8,-1143 232.8,-1146.4 240.8,-1153.22 254.8,-1143 264.22,-1136.12 254.15,-1125.83 262.8,-1118 288.28,-1094.95 323.93,-1084.28 357.03,-1079.69"/>
</g>
<!-- uc_cerrar -->
<g id="node16" class="node">
<title>uc_cerrar</title>
<ellipse fill="#eef6ff" stroke="#94bce3" stroke-width="0.9" cx="447.3" cy="-1211" rx="90" ry="20.16"/>
<text xml:space="preserve" text-anchor="middle" x="447.3" y="-1207.95" font-family="Segoe UI,Arial" font-size="11.50" fill="#1d1f20">Cerrar la obra</text>
</g>
<!-- dueno&#45;&gt;uc_cerrar -->
<g id="edge9" class="edge">
<title>dueno&#45;&gt;uc_cerrar</title>
<path fill="none" stroke="#5980a6" d="M98.35,-1108.38C126.25,-1132.15 170.76,-1165.92 215.8,-1183 260.56,-1199.97 313.39,-1207.22 357.18,-1210.12"/>
</g>
<!-- uc_plan -->
<g id="node17" class="node">
<title>uc_plan</title>
<ellipse fill="#eef6ff" stroke="#94bce3" stroke-width="0.9" cx="447.3" cy="-878" rx="90" ry="27.93"/>
<text xml:space="preserve" text-anchor="middle" x="447.3" y="-882.83" font-family="Segoe UI,Arial" font-size="11.50" fill="#1d1f20">Generar el plan</text>
<text xml:space="preserve" text-anchor="middle" x="447.3" y="-867.08" font-family="Segoe UI,Arial" font-size="11.50" fill="#1d1f20">de cobro</text>
</g>
<!-- dueno&#45;&gt;uc_plan -->
<g id="edge10" class="edge">
<title>dueno&#45;&gt;uc_plan</title>
<path fill="none" stroke="#5980a6" d="M137.13,-1095.79C176.86,-1099.64 224.96,-1096.24 254.8,-1066 272.01,-1048.55 248.54,-975.94 262.8,-956 287.36,-921.65 330.19,-902.32 368.29,-891.5"/>
</g>
<!-- uc_cobrar -->
<g id="node18" class="node">
<title>uc_cobrar</title>
<ellipse fill="#eef6ff" stroke="#94bce3" stroke-width="0.9" cx="447.3" cy="-808" rx="90" ry="20.16"/>
<text xml:space="preserve" text-anchor="middle" x="447.3" y="-804.95" font-family="Segoe UI,Arial" font-size="11.50" fill="#1d1f20">Registrar un pago</text>
</g>
<!-- dueno&#45;&gt;uc_cobrar -->
<g id="edge11" class="edge">
<title>dueno&#45;&gt;uc_cobrar</title>
<path fill="none" stroke="#5980a6" d="M74.6,-1055.69C87.29,-999.39 125.66,-867.9 215.8,-813 266.14,-782.34 334.83,-785.3 384.1,-793.34"/>
</g>
<!-- uc_cac -->
<g id="node19" class="node">
<title>uc_cac</title>
<ellipse fill="#eef6ff" stroke="#94bce3" stroke-width="0.9" cx="447.3" cy="-738" rx="90" ry="27.93"/>
<text xml:space="preserve" text-anchor="middle" x="447.3" y="-742.83" font-family="Segoe UI,Arial" font-size="11.50" fill="#1d1f20">Actualizar el saldo</text>
<text xml:space="preserve" text-anchor="middle" x="447.3" y="-727.08" font-family="Segoe UI,Arial" font-size="11.50" fill="#1d1f20">por índice CAC</text>
</g>
<!-- dueno&#45;&gt;uc_cac -->
<g id="edge12" class="edge">
<title>dueno&#45;&gt;uc_cac</title>
<path fill="none" stroke="#5980a6" d="M75.48,-1055.89C89.91,-999.64 131.5,-866.2 215.8,-793 254.55,-759.35 310.27,-745.44 357.22,-740.01"/>
</g>
<!-- uc_publicar -->
<g id="node20" class="node">
<title>uc_publicar</title>
<ellipse fill="#eef6ff" stroke="#94bce3" stroke-width="0.9" cx="447.3" cy="-192" rx="90" ry="27.93"/>
<text xml:space="preserve" text-anchor="middle" x="447.3" y="-196.82" font-family="Segoe UI,Arial" font-size="11.50" fill="#1d1f20">Publicar una obra</text>
<text xml:space="preserve" text-anchor="middle" x="447.3" y="-181.07" font-family="Segoe UI,Arial" font-size="11.50" fill="#1d1f20">terminada</text>
</g>
<!-- dueno&#45;&gt;uc_publicar -->
<g id="edge13" class="edge">
<title>dueno&#45;&gt;uc_publicar</title>
<path fill="none" stroke="#5980a6" d="M74.16,-1055.96C98.47,-923.99 209.68,-332.9 262.8,-270 290.16,-237.6 333.35,-218.35 370.96,-207.08"/>
</g>
<!-- uc_tablero -->
<g id="node22" class="node">
<title>uc_tablero</title>
<ellipse fill="#eef6ff" stroke="#94bce3" stroke-width="0.9" cx="447.3" cy="-122" rx="90" ry="20.16"/>
<text xml:space="preserve" text-anchor="middle" x="447.3" y="-118.95" font-family="Segoe UI,Arial" font-size="11.50" fill="#1d1f20">Ver el tablero</text>
</g>
<!-- dueno&#45;&gt;uc_tablero -->
<g id="edge14" class="edge">
<title>dueno&#45;&gt;uc_tablero</title>
<path fill="none" stroke="#5980a6" d="M74.49,-1055.74C85.86,-996.92 114.12,-850.08 136.8,-727 172.97,-530.75 155.73,-475.3 215.8,-285 228.19,-245.75 242.64,-240.32 254.8,-201 261.19,-180.34 247.52,-168.31 262.8,-153 288.13,-127.61 325.99,-118.41 360.76,-116.14"/>
</g>
<!-- uc_abm -->
<g id="node23" class="node">
<title>uc_abm</title>
<ellipse fill="#f5f5f8" stroke="#98989b" stroke-width="0.9" stroke-dasharray="5,2" cx="447.3" cy="-658" rx="91.92" ry="27.93"/>
<text xml:space="preserve" text-anchor="middle" x="447.3" y="-662.83" font-family="Segoe UI,Arial" font-size="11.50" fill="#5d6b7a">Administrar catálogos,</text>
<text xml:space="preserve" text-anchor="middle" x="447.3" y="-647.08" font-family="Segoe UI,Arial" font-size="11.50" fill="#5d6b7a">personal y cuentas</text>
</g>
<!-- dueno&#45;&gt;uc_abm -->
<g id="edge15" class="edge">
<title>dueno&#45;&gt;uc_abm</title>
<path fill="none" stroke="#5980a6" d="M73.38,-1055.79C85.93,-983.37 131.89,-780.13 262.8,-693 289.93,-674.94 324.04,-665.67 355.47,-661.06"/>
</g>
<!-- general -->
<g id="node2" class="node">
<title>general</title>
<path fill="#1d2d3d" stroke="black" d="M124.8,-715.92C124.8,-715.92 12,-715.92 12,-715.92 6,-715.92 0,-709.92 0,-703.92 0,-703.92 0,-676.08 0,-676.08 0,-670.08 6,-664.08 12,-664.08 12,-664.08 124.8,-664.08 124.8,-664.08 130.8,-664.08 136.8,-670.08 136.8,-676.08 136.8,-676.08 136.8,-703.92 136.8,-703.92 136.8,-709.92 130.8,-715.92 124.8,-715.92"/>
<text xml:space="preserve" text-anchor="middle" x="68.4" y="-696.2" font-family="Segoe UI,Arial" font-size="14.00" fill="white">Capataz</text>
<text xml:space="preserve" text-anchor="middle" x="68.4" y="-676.7" font-family="Segoe UI,Arial" font-size="14.00" fill="white">General</text>
</g>
<!-- uc_pedir -->
<g id="node8" class="node">
<title>uc_pedir</title>
<ellipse fill="#eef6ff" stroke="#94bce3" stroke-width="0.9" cx="447.3" cy="-315" rx="90" ry="27.93"/>
<text xml:space="preserve" text-anchor="middle" x="447.3" y="-319.82" font-family="Segoe UI,Arial" font-size="11.50" fill="#1d1f20">Generar el pedido</text>
<text xml:space="preserve" text-anchor="middle" x="447.3" y="-304.07" font-family="Segoe UI,Arial" font-size="11.50" fill="#1d1f20">de materiales</text>
</g>
<!-- general&#45;&gt;uc_pedir -->
<g id="edge16" class="edge">
<title>general&#45;&gt;uc_pedir</title>
<path fill="none" stroke="#749dc4" d="M76.35,-664.04C94.88,-600.18 151.77,-434.78 262.8,-354 290.19,-334.07 325.61,-323.9 358.02,-318.84"/>
</g>
<!-- uc_recibir -->
<g id="node11" class="node">
<title>uc_recibir</title>
<ellipse fill="#eef6ff" stroke="#94bce3" stroke-width="0.9" cx="447.3" cy="-393" rx="92.45" ry="27.93"/>
<text xml:space="preserve" text-anchor="middle" x="447.3" y="-397.82" font-family="Segoe UI,Arial" font-size="11.50" fill="#1d1f20">Confirmar la recepción</text>
<text xml:space="preserve" text-anchor="middle" x="447.3" y="-382.07" font-family="Segoe UI,Arial" font-size="11.50" fill="#1d1f20">con el remito</text>
</g>
<!-- general&#45;&gt;uc_recibir -->
<g id="edge17" class="edge">
<title>general&#45;&gt;uc_recibir</title>
<path fill="none" stroke="#749dc4" d="M81.05,-663.86C106.09,-610.92 170.34,-491.07 262.8,-432 290.66,-414.2 325.27,-404.39 356.91,-399.02"/>
</g>
<!-- general&#45;&gt;uc_etapas -->
<g id="edge18" class="edge">
<title>general&#45;&gt;uc_etapas</title>
<path fill="none" stroke="#749dc4" d="M75.53,-716.12C91.38,-780.24 138,-948.98 215.8,-1070 231.94,-1095.12 236.34,-1104.17 262.8,-1118 292.01,-1133.27 327.07,-1141.29 358.69,-1145.42"/>
</g>
<!-- uc_hito -->
<g id="node13" class="node">
<title>uc_hito</title>
<ellipse fill="#eef6ff" stroke="#94bce3" stroke-width="0.9" cx="447.3" cy="-1001" rx="90" ry="27.93"/>
<text xml:space="preserve" text-anchor="middle" x="447.3" y="-1005.83" font-family="Segoe UI,Arial" font-size="11.50" fill="#1d1f20">Marcar una etapa</text>
<text xml:space="preserve" text-anchor="middle" x="447.3" y="-990.08" font-family="Segoe UI,Arial" font-size="11.50" fill="#1d1f20">cumplida</text>
</g>
<!-- general&#45;&gt;uc_hito -->
<g id="edge19" class="edge">
<title>general&#45;&gt;uc_hito</title>
<path fill="none" stroke="#749dc4" d="M82.44,-716.31C105.19,-760.49 155.52,-850.81 215.8,-913 255.82,-954.29 317.26,-976.48 366.64,-988.24"/>
</g>
<!-- general&#45;&gt;uc_desvio -->
<g id="edge20" class="edge">
<title>general&#45;&gt;uc_desvio</title>
<path fill="none" stroke="#749dc4" d="M76.56,-716.21C93.26,-773.7 139.29,-913.14 215.8,-1006 250.37,-1047.95 308.95,-1066.14 358.4,-1073.87"/>
</g>
<!-- general&#45;&gt;uc_tablero -->
<g id="edge21" class="edge">
<title>general&#45;&gt;uc_tablero</title>
<path fill="none" stroke="#749dc4" d="M74.77,-663.91C95.67,-565.17 174.78,-216.66 262.8,-153 289.9,-133.4 325.08,-124.59 357.38,-121.03"/>
</g>
<!-- capataz -->
<g id="node3" class="node">
<title>capataz</title>
<path fill="#1d2d3d" stroke="black" d="M124.8,-379.92C124.8,-379.92 12,-379.92 12,-379.92 6,-379.92 0,-373.92 0,-367.92 0,-367.92 0,-340.08 0,-340.08 0,-334.08 6,-328.08 12,-328.08 12,-328.08 124.8,-328.08 124.8,-328.08 130.8,-328.08 136.8,-334.08 136.8,-340.08 136.8,-340.08 136.8,-367.92 136.8,-367.92 136.8,-373.92 130.8,-379.92 124.8,-379.92"/>
<text xml:space="preserve" text-anchor="middle" x="68.4" y="-360.2" font-family="Segoe UI,Arial" font-size="14.00" fill="white">Capataz</text>
<text xml:space="preserve" text-anchor="middle" x="68.4" y="-340.7" font-family="Segoe UI,Arial" font-size="14.00" fill="white">de Obra</text>
</g>
<!-- capataz&#45;&gt;uc_pedir -->
<g id="edge22" class="edge">
<title>capataz&#45;&gt;uc_pedir</title>
<path fill="none" stroke="#94bce3" d="M137.22,-346.98C200.06,-340.48 293.77,-330.78 361.52,-323.77"/>
</g>
<!-- capataz&#45;&gt;uc_recibir -->
<g id="edge23" class="edge">
<title>capataz&#45;&gt;uc_recibir</title>
<path fill="none" stroke="#94bce3" d="M137.22,-361.02C199.42,-367.45 291.88,-377.02 359.46,-384.01"/>
</g>
<!-- visitante -->
<g id="node4" class="node">
<title>visitante</title>
<path fill="#1d2d3d" stroke="black" d="M124.8,-85.92C124.8,-85.92 12,-85.92 12,-85.92 6,-85.92 0,-79.92 0,-73.92 0,-73.92 0,-46.08 0,-46.08 0,-40.08 6,-34.08 12,-34.08 12,-34.08 124.8,-34.08 124.8,-34.08 130.8,-34.08 136.8,-40.08 136.8,-46.08 136.8,-46.08 136.8,-73.92 136.8,-73.92 136.8,-79.92 130.8,-85.92 124.8,-85.92"/>
<text xml:space="preserve" text-anchor="middle" x="68.4" y="-66.2" font-family="Segoe UI,Arial" font-size="14.00" fill="white">Visitante</text>
<text xml:space="preserve" text-anchor="middle" x="68.4" y="-46.7" font-family="Segoe UI,Arial" font-size="14.00" fill="white">sin cuenta</text>
</g>
<!-- uc_vidriera -->
<g id="node21" class="node">
<title>uc_vidriera</title>
<ellipse fill="#eef6ff" stroke="#94bce3" stroke-width="0.9" cx="447.3" cy="-60" rx="90" ry="20.16"/>
<text xml:space="preserve" text-anchor="middle" x="447.3" y="-56.95" font-family="Segoe UI,Arial" font-size="11.50" fill="#1d1f20">Ver la vidriera</text>
</g>
<!-- visitante&#45;&gt;uc_vidriera -->
<g id="edge24" class="edge">
<title>visitante&#45;&gt;uc_vidriera</title>
<path fill="none" stroke="#3f7d63" d="M137.22,-60C198.68,-60 289.68,-60 357.03,-60"/>
</g>
<!-- uc_pdf&#45;&gt;uc_presup -->
<g id="edge29" class="edge">
<title>uc_pdf&#45;&gt;uc_presup</title>
<path fill="none" stroke="#5d6b7a" stroke-width="0.9" stroke-dasharray="5,2" d="M358.86,-1382.17C315.17,-1384.82 268.3,-1397.78 251.72,-1438.25 245.37,-1453.73 261.03,-1487.43 262.8,-1489 286.09,-1509.59 317.76,-1519.12 348.28,-1522.98"/>
<polygon fill="#5d6b7a" stroke="#5d6b7a" stroke-width="0.9" points="357.92,-1524 347.5,-1527.42 354.04,-1523.59 347.98,-1522.95 347.98,-1522.95 347.98,-1522.95 354.04,-1523.59 348.45,-1518.47 357.92,-1524"/>
<text xml:space="preserve" text-anchor="middle" x="235.3" y="-1442.72" font-family="Segoe UI,Arial" font-size="9.50" fill="#5d6b7a">«extend»</text>
</g>
<!-- uc_whatsapp&#45;&gt;uc_aprobarC -->
<g id="edge28" class="edge">
<title>uc_whatsapp&#45;&gt;uc_aprobarC</title>
<path fill="none" stroke="#5d6b7a" stroke-width="0.9" stroke-dasharray="5,2" d="M447.3,-499.35C447.3,-509.59 447.3,-521.2 447.3,-531.68"/>
<polygon fill="#5d6b7a" stroke="#5d6b7a" stroke-width="0.9" points="447.3,-541.38 442.8,-531.38 447.3,-537.48 447.3,-531.38 447.3,-531.38 447.3,-531.38 447.3,-537.48 451.8,-531.38 447.3,-541.38"/>
<text xml:space="preserve" text-anchor="middle" x="437.55" y="-518.61" font-family="Segoe UI,Arial" font-size="9.50" fill="#5d6b7a">«extend»</text>
</g>
<!-- uc_recibir&#45;&gt;uc_gasto -->
<g id="edge26" class="edge">
<title>uc_recibir&#45;&gt;uc_gasto</title>
<path fill="none" stroke="#5d6b7a" stroke-width="0.9" stroke-dasharray="5,2" d="M355.26,-389.84C321.05,-393.79 285.15,-405.02 262.8,-432 182.15,-529.35 247.87,-874.37 250.97,-1000.75 253.6,-1108.07 191.48,-1161.77 262.8,-1242 285.1,-1267.08 319.45,-1276.97 352.49,-1279.84"/>
<polygon fill="#5d6b7a" stroke="#5d6b7a" stroke-width="0.9" points="362.06,-1280.46 351.79,-1284.3 358.17,-1280.21 352.08,-1279.81 352.08,-1279.81 352.08,-1279.81 358.17,-1280.21 352.38,-1275.32 362.06,-1280.46"/>
<text xml:space="preserve" text-anchor="middle" x="235.3" y="-991.73" font-family="Segoe UI,Arial" font-size="9.50" fill="#5d6b7a">«include»</text>
</g>
<!-- uc_hito&#45;&gt;uc_cerrar -->
<g id="edge27" class="edge">
<title>uc_hito&#45;&gt;uc_cerrar</title>
<path fill="none" stroke="#5d6b7a" stroke-width="0.9" stroke-dasharray="5,2" d="M358.78,-995.29C315.15,-998.01 268.24,-1010.99 250.97,-1051.25 243.18,-1069.41 204.14,-1117.45 262.8,-1180 285.36,-1204.05 319.04,-1213.9 351.48,-1217.03"/>
<polygon fill="#5d6b7a" stroke="#5d6b7a" stroke-width="0.9" points="361.32,-1217.77 351.01,-1221.51 357.42,-1217.48 351.34,-1217.02 351.34,-1217.02 351.34,-1217.02 357.42,-1217.48 351.68,-1212.54 361.32,-1217.77"/>
<text xml:space="preserve" text-anchor="middle" x="235.3" y="-1055.72" font-family="Segoe UI,Arial" font-size="9.50" fill="#5d6b7a">«include»</text>
</g>
<!-- uc_plan&#45;&gt;uc_aprobarP -->
<g id="edge25" class="edge">
<title>uc_plan&#45;&gt;uc_aprobarP</title>
<path fill="none" stroke="#5d6b7a" stroke-width="0.9" stroke-dasharray="5,2" d="M368.35,-891.48C330.15,-902.29 287.34,-921.6 262.8,-956 214.75,-1023.34 249.25,-1059.04 250.97,-1141.75 253.6,-1268.61 178.86,-1331.85 262.8,-1427 285.1,-1452.27 319.63,-1462.15 352.82,-1464.96"/>
<polygon fill="#5d6b7a" stroke="#5d6b7a" stroke-width="0.9" points="362.44,-1465.57 352.18,-1469.43 358.54,-1465.32 352.46,-1464.94 352.46,-1464.94 352.46,-1464.94 358.54,-1465.32 352.74,-1460.45 362.44,-1465.57"/>
<text xml:space="preserve" text-anchor="middle" x="235.3" y="-1132.72" font-family="Segoe UI,Arial" font-size="9.50" fill="#5d6b7a">«include»</text>
</g>
<!-- uc_cac&#45;&gt;uc_plan -->
<g id="edge30" class="edge">
<title>uc_cac&#45;&gt;uc_plan</title>
<path fill="none" stroke="#5d6b7a" stroke-width="0.9" stroke-dasharray="5,2" d="M357.3,-738.31C323.99,-742.84 288.19,-753.58 262.8,-777 245.83,-792.65 242.96,-806.39 251.72,-827.75 266.91,-864.82 307.51,-878.81 347.81,-882.93"/>
<polygon fill="#5d6b7a" stroke="#5d6b7a" stroke-width="0.9" points="357.77,-883.74 347.44,-887.42 353.88,-883.43 347.8,-882.93 347.8,-882.93 347.8,-882.93 353.88,-883.43 348.17,-878.45 357.77,-883.74"/>
<text xml:space="preserve" text-anchor="middle" x="235.3" y="-818.73" font-family="Segoe UI,Arial" font-size="9.50" fill="#5d6b7a">«extend»</text>
</g>
<!-- uc_publicar&#45;&gt;uc_cerrar -->
<g id="edge31" class="edge">
<title>uc_publicar&#45;&gt;uc_cerrar</title>
<path fill="none" stroke="#5d6b7a" stroke-width="0.9" stroke-dasharray="5,2" d="M367.15,-205.11C328.87,-215.8 286.36,-235.14 262.8,-270 183.44,-387.44 248.83,-766.04 251.72,-907.75 254.18,-1028.83 182.72,-1089.16 262.8,-1180 285.09,-1205.28 319.62,-1215.16 352.81,-1217.97"/>
<polygon fill="#5d6b7a" stroke="#5d6b7a" stroke-width="0.9" points="362.43,-1218.58 352.17,-1222.44 358.53,-1218.33 352.45,-1217.95 352.45,-1217.95 352.45,-1217.95 358.53,-1218.33 352.73,-1213.46 362.43,-1218.58"/>
<text xml:space="preserve" text-anchor="middle" x="235.3" y="-898.73" font-family="Segoe UI,Arial" font-size="9.50" fill="#5d6b7a">«extend»</text>
</g>
</g>
</svg>
